<?xml version="1.0" standalone="no"?>
<!DOCTYPE svg PUBLIC "-//W3C//DTD SVG 20010904//EN"
 "http://www.w3.org/TR/2001/REC-SVG-20010904/DTD/svg10.dtd">
<svg version="1.0" xmlns="http://www.w3.org/2000/svg"
 width="1848.000000pt" height="1848.000000pt" viewBox="0 0 1848.000000 1848.000000"
 preserveAspectRatio="xMidYMid meet">
<metadata>
Created by potrace 1.14, written by Peter Selinger 2001-2017
</metadata>
<g transform="translate(0.000000,1848.000000) scale(0.100000,-0.100000)"
fill="#000000" stroke="none">
<path d="M13689 12466 c-2 -3 -36 -8 -74 -11 -39 -4 -73 -9 -76 -11 -3 -1 -28
-6 -55 -9 -199 -22 -548 -149 -748 -270 -40 -25 -78 -45 -84 -45 -6 0 -12 -4
-14 -8 -1 -4 -25 -23 -53 -42 -27 -19 -52 -37 -55 -40 -3 -3 -27 -23 -55 -44
-71 -56 -252 -242 -305 -314 l-45 -60 -120 1 c-114 1 -255 -7 -320 -19 -55 -9
-250 -56 -260 -62 -5 -4 -15 -7 -21 -8 -49 -8 -289 -120 -356 -166 -14 -10
-29 -18 -32 -18 -11 0 -108 -71 -186 -135 -201 -165 -358 -363 -472 -597 -21
-43 -38 -80 -39 -83 0 -2 -11 -29 -24 -60 -14 -30 -25 -58 -26 -63 -2 -10 -5
-20 -22 -77 -18 -56 -34 -127 -43 -181 -3 -20 -8 -46 -10 -58 -7 -29 -17 -141
-18 -196 l-1 -45 67 0 c38 0 68 -3 68 -6 0 -4 18 -3 40 1 22 4 42 4 45 0 2 -4
18 -5 35 -2 24 3 30 9 31 31 1 45 16 188 23 221 3 14 8 39 12 55 21 103 128
383 155 405 3 3 18 28 34 57 15 29 35 60 44 70 9 10 28 34 41 53 64 92 207
231 325 315 75 53 258 154 340 186 34 13 140 43 148 41 4 -1 7 2 7 6 0 4 8 8
18 9 9 0 60 8 112 18 134 25 378 25 528 0 15 -3 25 2 29 13 4 9 9 19 12 22 3
3 27 38 53 77 198 301 523 540 908 667 63 21 186 53 240 62 50 9 59 11 63 14
1 1 18 3 37 4 19 2 71 7 115 11 90 9 226 9 340 0 68 -5 260 -35 310 -49 11 -3
39 -10 62 -16 92 -22 255 -87 373 -148 78 -41 235 -140 263 -166 7 -6 32 -27
57 -47 115 -93 319 -327 320 -366 0 -7 4 -13 8 -13 12 0 99 -179 129 -264 25
-70 29 -86 39 -136 3 -14 7 -33 10 -43 9 -29 19 -114 26 -214 2 -19 11 -24 55
-33 29 -5 79 -15 111 -21 70 -14 148 -41 227 -80 68 -34 128 -68 135 -78 3 -3
22 -19 44 -35 37 -28 113 -101 149 -145 33 -41 87 -121 87 -130 0 -5 3 -11 8
-13 22 -10 102 -228 117 -318 1 -11 17 -16 61 -17 117 -5 156 -5 161 1 4 3 11
2 17 -3 13 -10 60 5 52 17 -2 4 -7 28 -11 52 -25 182 -133 421 -262 581 -25
31 -173 180 -203 203 -104 83 -260 166 -401 214 -46 15 -85 33 -87 40 -1 7 -5
29 -8 50 -10 70 -72 256 -116 349 -36 76 -144 260 -165 282 -8 7 -22 25 -31
39 -57 88 -223 250 -382 375 -99 79 -322 203 -455 255 -22 8 -44 18 -50 22 -5
4 -22 10 -37 14 -15 3 -40 11 -55 18 -34 13 -22 10 -163 46 -114 30 -139 35
-235 48 -27 3 -59 8 -70 11 -27 7 -440 15 -446 9z"/>
<path d="M11450 12138 c-19 -5 -51 -14 -70 -19 -19 -6 -44 -12 -55 -14 -11 -2
-21 -4 -22 -5 -2 -2 -7 -4 -13 -5 -5 -1 -11 -3 -12 -5 -2 -1 -10 -3 -18 -5
-88 -18 -321 -120 -472 -207 -110 -63 -289 -186 -329 -227 -9 -9 -37 -33 -63
-55 -125 -104 -293 -296 -408 -469 -57 -86 -208 -365 -208 -385 0 -5 -10 -31
-22 -58 -12 -27 -23 -54 -24 -59 -1 -6 -15 -54 -32 -107 -18 -53 -34 -111 -37
-129 -3 -18 -8 -35 -10 -38 -2 -4 -6 -26 -10 -51 -4 -25 -8 -47 -10 -50 -3 -5
-14 -79 -20 -130 -1 -14 -6 -52 -10 -85 -19 -169 -10 -211 44 -195 15 4 36 4
47 0 11 -5 26 -5 33 0 7 4 28 4 47 0 18 -4 36 -5 39 -2 3 4 20 5 38 4 l32 -3
0 53 c0 55 9 161 20 226 4 20 8 52 10 70 2 18 7 42 10 52 3 10 8 29 10 42 12
63 18 84 27 96 6 6 8 12 4 12 -3 0 12 50 34 112 185 518 566 950 1049 1188 94
47 205 94 221 95 3 0 10 3 15 6 19 12 157 50 244 68 96 21 93 14 55 106 -14
33 -27 68 -29 79 -2 10 -9 24 -16 32 -6 8 -8 14 -5 14 4 0 -1 14 -11 30 -19
32 -21 33 -73 18z"/>
<path d="M11868 11035 c-2 -2 -27 -6 -56 -9 -30 -3 -75 -11 -100 -17 -26 -6
-54 -12 -62 -14 -28 -6 -115 -36 -150 -52 -88 -39 -154 -74 -184 -95 -156
-111 -268 -220 -344 -334 -28 -43 -56 -83 -60 -89 -23 -30 -117 -255 -106
-255 2 0 0 -8 -5 -18 -6 -11 -12 -30 -15 -43 -3 -13 -7 -33 -9 -44 -8 -34 -18
-117 -22 -171 -3 -51 -3 -52 26 -56 16 -3 31 -3 34 0 2 2 39 3 82 3 110 -3
126 -2 135 7 4 4 10 32 13 62 3 30 7 66 10 80 3 14 7 36 10 49 13 69 89 249
114 271 3 3 13 18 21 35 23 44 177 196 246 243 90 60 196 110 275 128 97 23
165 32 241 33 48 0 92 0 97 1 5 0 1 18 -10 40 -10 21 -19 44 -19 50 0 5 -8 29
-19 53 -10 23 -27 62 -37 87 -10 25 -19 47 -21 49 -4 5 -80 10 -85 6z"/>
<path d="M8118 10545 c-2 -2 -41 -6 -88 -9 -81 -6 -113 -10 -162 -21 -13 -2
-37 -7 -54 -9 -58 -10 -219 -68 -304 -111 -235 -119 -420 -312 -532 -555 -60
-128 -62 -133 -72 -175 -2 -11 -9 -31 -14 -45 -5 -14 -10 -28 -11 -32 0 -5 -1
-9 -2 -10 0 -2 -2 -10 -4 -18 -11 -52 -16 -79 -20 -105 -3 -16 -7 -41 -10 -55
-16 -81 -20 -284 -20 -1185 l0 -1000 396 -2 395 -3 0 968 c1 532 4 1000 7
1040 7 73 30 179 47 217 5 11 19 44 31 73 12 28 25 52 30 52 5 0 9 6 9 13 0
20 78 99 129 132 90 56 162 68 439 68 160 0 162 1 162 22 0 12 -3 25 -7 29 -6
5 -28 59 -37 91 -2 6 -8 24 -15 40 -7 17 -46 120 -87 230 -41 110 -79 209 -83
220 -5 11 -16 36 -24 55 -8 19 -17 44 -19 55 -2 14 -14 21 -41 26 -20 3 -38 5
-39 4z"/>
<path d="M17930 10522 c-84 -28 -105 -41 -168 -103 -89 -86 -123 -161 -128
-279 -5 -131 35 -235 123 -323 46 -47 143 -101 203 -113 50 -11 140 -11 175
-1 17 4 39 10 49 12 34 8 111 52 150 86 44 40 96 116 120 178 44 112 15 299
-59 389 -57 68 -150 139 -197 148 -5 1 -9 2 -10 4 -9 6 -53 12 -123 16 -60 3
-94 -1 -135 -14z m196 -45 c51 -7 136 -53 183 -99 24 -24 58 -72 75 -108 26
-56 30 -76 30 -145 0 -93 -2 -105 -32 -166 -80 -165 -261 -243 -444 -189 -40
12 -138 74 -151 95 -4 8 -14 21 -22 29 -27 27 -64 111 -73 167 -11 70 6 170
41 232 28 53 107 133 141 143 11 4 23 10 26 14 3 4 32 14 64 22 56 14 85 15
162 5z"/>
<path d="M18007 10384 c-1 -2 -24 -4 -50 -5 -26 -2 -51 -6 -57 -9 -7 -4 -9
-90 -8 -246 l3 -239 34 -3 c27 -3 33 0 28 12 -3 8 -2 18 4 21 5 4 7 11 3 16
-3 5 -6 40 -6 76 l-1 67 52 1 c43 1 54 -3 69 -23 9 -14 26 -36 38 -51 11 -14
33 -47 48 -72 24 -42 31 -47 62 -47 31 0 34 2 28 22 -4 11 -15 32 -25 45 -11
13 -19 28 -19 32 0 8 -6 17 -52 71 -25 29 -22 41 10 55 38 17 67 74 65 131 -3
80 -59 129 -164 141 -32 4 -60 6 -62 5z m60 -68 c56 -7 79 -23 90 -61 13 -39
-5 -88 -37 -105 -12 -7 -53 -13 -90 -15 l-68 -4 -4 50 c-1 28 0 53 4 55 4 3 4
15 -1 27 -15 43 10 71 54 61 6 -2 29 -5 52 -8z"/>
<path d="M1288 10525 c-2 -2 -30 -6 -63 -9 -155 -16 -295 -53 -413 -107 -35
-16 -66 -29 -69 -29 -3 0 -40 -21 -82 -47 -103 -63 -204 -144 -260 -207 -14
-16 -39 -43 -54 -60 -52 -57 -154 -220 -196 -314 -22 -50 -41 -94 -41 -96 0
-3 -5 -17 -12 -33 -6 -15 -12 -33 -13 -39 -2 -6 -10 -36 -19 -66 -8 -30 -18
-66 -20 -79 -3 -13 -5 -24 -6 -24 -3 0 -17 -89 -30 -188 -6 -47 -10 -472 -10
-1053 0 -923 1 -974 17 -975 10 -1 185 -2 388 -3 l371 -1 0 970 c1 534 4 990
7 1015 12 91 16 106 40 171 35 97 72 156 146 230 76 76 132 111 234 146 89 32
239 39 344 17 73 -15 192 -68 233 -104 14 -12 34 -30 45 -39 11 -9 36 -36 55
-61 19 -25 37 -47 40 -50 17 -17 80 -161 82 -187 0 -5 4 -17 8 -28 19 -51 23
-199 25 -950 1 -859 0 -837 53 -933 24 -44 117 -139 132 -135 4 1 14 -4 20
-12 7 -8 21 -15 31 -15 10 0 20 -4 24 -9 9 -16 112 -24 313 -25 163 -1 195 1
201 14 8 18 6 1909 -3 1965 -4 22 -8 63 -11 90 -2 28 -7 61 -9 75 -31 150 -43
194 -72 280 -51 148 -144 318 -233 429 -69 86 -203 211 -258 239 -12 7 -27 18
-35 25 -17 17 -167 93 -220 112 -142 51 -229 74 -353 91 -47 6 -322 14 -327 9z"/>
<path d="M4679 10516 c-2 -2 -29 -6 -59 -10 -30 -3 -62 -8 -70 -9 -8 -2 -42
-9 -75 -16 -143 -30 -360 -121 -492 -207 -172 -112 -349 -280 -453 -429 -19
-27 -37 -52 -40 -55 -10 -10 -56 -86 -75 -125 -11 -22 -22 -42 -26 -45 -8 -8
-39 -77 -39 -89 0 -6 -5 -11 -10 -11 -6 0 -9 -3 -8 -7 0 -5 -2 -17 -6 -28 -94
-250 -121 -392 -119 -630 1 -111 8 -220 13 -220 1 0 3 -13 5 -30 4 -43 15 -97
20 -105 3 -4 7 -25 11 -46 24 -152 173 -451 315 -636 46 -58 215 -227 264
-264 22 -16 42 -31 45 -34 14 -14 132 -90 140 -90 6 0 10 -4 10 -8 0 -4 16
-14 35 -21 19 -7 35 -17 35 -22 0 -5 7 -9 15 -9 8 0 29 -8 47 -18 55 -31 222
-89 313 -108 139 -30 208 -37 350 -37 122 1 228 11 310 29 17 4 37 8 45 9 26
3 132 35 205 62 66 25 274 128 285 142 3 3 39 29 80 56 141 95 362 334 452
490 34 57 92 170 104 200 20 50 75 200 73 200 0 0 4 20 11 45 7 25 14 54 16
65 13 76 15 91 19 103 8 21 19 190 18 267 -1 120 -13 233 -34 320 -5 22 -11
49 -13 60 -5 29 -27 107 -37 130 -5 11 -15 38 -23 60 -8 22 -22 58 -32 80 -10
22 -17 43 -16 48 1 4 -1 7 -6 7 -4 0 -14 15 -21 33 -33 73 -149 251 -207 317
-38 42 -164 169 -199 200 -47 41 -180 140 -188 140 -3 0 -23 12 -44 26 -39 26
-190 100 -253 123 -19 7 -44 17 -55 21 -24 10 -143 42 -170 46 -11 2 -31 5
-45 9 -14 3 -41 8 -60 11 -39 6 -356 15 -361 10z m291 -749 c8 -2 29 -7 45
-11 64 -16 177 -64 183 -78 2 -5 9 -8 15 -8 18 0 100 -61 158 -116 54 -52 126
-142 146 -184 7 -14 17 -32 22 -40 21 -32 59 -128 74 -185 27 -103 31 -136 31
-280 1 -114 -4 -158 -23 -235 -66 -269 -240 -488 -480 -604 -30 -14 -62 -26
-71 -26 -9 0 -21 -5 -28 -12 -7 -7 -12 -9 -12 -5 0 3 -12 2 -26 -3 -50 -19
-206 -28 -284 -16 -19 3 -53 8 -75 12 -22 3 -73 20 -113 36 -272 113 -485 405
-519 713 -12 101 -4 347 10 362 4 3 7 14 7 24 0 19 50 169 72 211 7 16 16 28
21 28 4 0 7 6 7 13 0 7 20 40 44 72 140 190 319 306 511 332 22 3 42 7 44 9 5
5 219 -4 241 -9z"/>
<path d="M15439 9390 c-4 -67 0 -395 6 -434 20 -138 149 -274 289 -303 17 -3
306 -7 641 -9 336 -1 612 -2 614 -3 3 -1 -4 -9 -15 -19 -10 -11 -35 -39 -56
-63 -41 -50 -57 -69 -136 -158 -82 -92 -89 -100 -140 -160 -50 -56 -64 -73
-124 -139 -21 -23 -38 -43 -38 -45 0 -3 -19 -25 -42 -50 -24 -25 -77 -85 -118
-133 -41 -48 -84 -97 -95 -109 -11 -11 -49 -54 -84 -95 -36 -41 -72 -82 -80
-91 -9 -9 -27 -29 -40 -45 -31 -36 -151 -175 -166 -190 -5 -7 -32 -38 -60 -69
-27 -32 -61 -70 -75 -85 -119 -132 -213 -276 -251 -386 -49 -139 -38 -283 32
-414 56 -106 149 -180 282 -225 75 -25 99 -29 217 -41 48 -5 2022 -10 2050 -5
3 1 5 173 4 383 l0 383 -787 0 c-433 0 -787 2 -787 4 0 5 45 58 89 106 21 22
66 74 101 115 35 41 67 77 70 80 4 3 37 41 75 85 37 44 78 90 89 101 12 12 37
41 56 65 19 23 44 52 56 63 11 12 52 57 90 101 38 44 74 85 79 91 6 6 33 37
60 69 28 32 61 70 75 85 14 15 36 40 49 56 23 27 144 165 166 190 18 19 119
135 244 278 111 128 198 250 214 301 3 11 13 40 22 64 9 25 19 79 22 120 6 89
6 86 -2 131 -37 210 -182 339 -445 396 -62 14 -244 17 -1137 18 -901 1 -1013
0 -1014 -14z"/>
<path d="M8696 9390 c-11 -4 -9 -18 11 -70 14 -36 36 -94 50 -130 14 -36 26
-72 28 -80 2 -8 10 -31 18 -50 8 -19 27 -69 42 -110 15 -41 30 -84 35 -95 17
-44 40 -105 75 -200 20 -55 52 -140 70 -190 19 -49 55 -146 80 -215 25 -69 49
-132 52 -140 4 -8 7 -17 8 -20 1 -3 5 -14 9 -25 8 -20 47 -126 105 -285 17
-47 36 -93 41 -102 6 -10 10 -25 10 -33 0 -8 4 -23 9 -33 19 -37 41 -93 41
-103 0 -6 6 -25 14 -42 8 -18 47 -120 86 -227 39 -107 75 -204 80 -215 4 -11
18 -47 30 -80 23 -63 24 -66 59 -155 11 -31 21 -59 21 -63 0 -4 8 -26 19 -50
10 -23 29 -71 41 -107 52 -153 125 -276 211 -356 120 -111 321 -148 487 -90
23 8 42 12 42 8 0 -4 4 -2 8 3 4 6 27 23 52 39 49 31 110 90 152 146 29 39 89
156 108 210 7 19 21 54 31 77 11 24 19 46 19 49 0 7 75 217 89 249 9 19 18 45
19 55 1 3 15 38 31 78 16 39 27 72 24 72 -3 0 -1 6 4 13 8 9 31 68 38 97 1 3
7 19 14 35 13 31 46 120 95 255 15 41 31 84 36 95 5 11 32 83 60 160 28 77 54
147 57 155 3 8 7 20 9 25 1 6 8 24 15 40 6 17 13 35 14 40 4 17 55 149 66 167
5 10 9 22 9 28 0 6 15 49 34 98 37 94 137 363 168 452 11 30 25 69 32 85 7 17
23 59 36 95 12 36 26 74 31 85 13 30 32 79 35 90 1 6 23 66 48 134 26 68 44
126 42 129 -3 2 -137 5 -298 5 -289 -1 -361 -7 -397 -36 -8 -7 -15 -10 -15 -8
-2 10 -63 -35 -103 -75 -37 -38 -102 -144 -88 -144 3 0 -4 -18 -15 -40 -11
-21 -20 -44 -20 -49 0 -5 -5 -22 -12 -38 -6 -15 -12 -32 -14 -38 -1 -5 -15
-41 -29 -80 -49 -130 -96 -260 -100 -275 -2 -8 -9 -28 -16 -45 -6 -16 -13 -34
-15 -40 -3 -12 -109 -305 -129 -355 -7 -19 -22 -60 -33 -90 -11 -30 -24 -64
-28 -75 -4 -11 -8 -22 -9 -25 -4 -19 -29 -87 -34 -95 -3 -5 -6 -14 -8 -20 -1
-5 -41 -116 -88 -245 -48 -129 -94 -256 -102 -282 -17 -50 -35 -52 -46 -5 -3
12 -21 67 -41 122 -20 55 -38 106 -41 113 -2 7 -5 14 -5 17 0 3 -9 25 -20 50
-11 25 -17 45 -13 45 3 0 1 6 -5 13 -6 6 -20 41 -31 77 -12 36 -26 74 -31 85
-8 18 -76 206 -102 280 -5 17 -14 39 -18 50 -5 11 -50 135 -100 275 -50 140
-95 264 -100 275 -4 11 -13 34 -18 50 -6 17 -26 73 -45 125 -20 52 -47 129
-62 170 -15 41 -31 84 -36 95 -6 12 -11 27 -13 35 -2 8 -6 22 -9 30 -4 8 -16
42 -28 75 -12 33 -25 64 -30 69 -8 9 -779 15 -803 6z"/>
<path d="M13328 9395 c-2 -2 -30 -5 -63 -9 -57 -5 -74 -8 -135 -21 -14 -4 -36
-8 -50 -11 -78 -15 -327 -112 -361 -141 -8 -7 -19 -13 -23 -13 -10 0 -190
-121 -235 -157 -72 -59 -211 -204 -267 -279 -32 -43 -62 -81 -65 -84 -4 -3 -9
-15 -13 -27 -4 -13 -11 -23 -15 -23 -4 0 -18 -22 -32 -50 -13 -27 -27 -50 -31
-50 -5 0 -8 -5 -8 -10 0 -6 -11 -33 -25 -62 -14 -28 -25 -58 -25 -65 0 -7 -4
-13 -8 -13 -7 0 -19 -29 -38 -95 -55 -186 -72 -265 -81 -378 -10 -135 -5 -302
12 -397 3 -14 7 -40 10 -59 3 -19 8 -37 10 -41 2 -4 7 -22 10 -40 3 -18 19
-72 34 -119 185 -553 636 -971 1179 -1090 138 -31 159 -33 314 -35 238 -4 444
35 649 124 61 27 221 114 244 132 6 5 42 32 80 60 97 72 260 237 328 333 31
44 60 85 64 91 42 57 157 293 168 344 2 8 10 34 19 57 18 52 53 209 62 288 10
78 10 345 0 410 -4 28 -12 75 -18 105 -6 30 -11 60 -12 65 -16 85 -79 249
-143 372 -52 101 -76 140 -162 258 -71 98 -257 274 -371 351 -158 107 -394
215 -520 238 -14 2 -45 9 -70 14 -77 18 -150 25 -282 27 -70 1 -129 1 -130 0z
m232 -740 c252 -34 499 -225 613 -475 68 -151 87 -253 82 -440 -3 -140 -6
-160 -31 -247 -9 -29 -15 -55 -15 -58 2 -19 -111 -215 -155 -269 -91 -111
-228 -210 -339 -247 -22 -7 -44 -16 -50 -20 -5 -4 -30 -10 -55 -14 -25 -4 -54
-9 -65 -12 -25 -5 -171 -5 -205 1 -189 30 -311 94 -448 236 -52 53 -162 207
-162 227 0 5 -9 28 -20 51 -11 22 -20 47 -20 55 0 7 -5 18 -12 25 -7 7 -9 12
-6 12 4 0 2 15 -3 33 -26 88 -36 223 -25 347 6 82 15 137 27 167 5 13 6 23 4
23 -3 0 4 24 16 53 58 151 98 214 209 327 133 136 283 212 445 227 33 3 61 6
63 7 3 4 101 -2 152 -9z"/>
<path d="M5862 6629 c-89 -12 -118 -27 -193 -101 -106 -104 -144 -294 -84
-416 69 -137 287 -149 422 -24 61 56 107 144 119 227 10 77 10 94 -3 150 -11
47 -23 69 -55 102 -22 22 -50 43 -62 46 -11 3 -37 9 -56 14 -19 5 -59 6 -88 2z
m106 -115 c36 -24 51 -70 48 -149 -3 -85 -32 -157 -84 -208 -35 -34 -100 -64
-132 -61 -8 1 -24 2 -35 3 -31 2 -71 42 -85 85 -26 81 11 227 75 290 63 63
152 80 213 40z"/>
<path d="M4710 6624 c-27 -10 -45 -15 -50 -16 -11 0 -106 -72 -118 -89 -7 -10
-18 -24 -25 -31 -16 -18 -47 -74 -52 -96 -3 -9 -9 -36 -15 -59 -13 -56 -6
-171 14 -210 29 -54 85 -101 139 -114 55 -13 150 -7 212 13 40 13 40 14 36 58
-1 25 -4 46 -5 48 -2 1 -21 -4 -43 -12 -38 -14 -86 -19 -143 -17 -35 1 -89 49
-97 86 -28 123 26 264 121 320 54 31 122 38 188 18 51 -15 67 -11 71 18 2 8 6
20 11 27 10 17 -8 36 -49 49 -32 11 -170 15 -195 7z"/>
<path d="M71 6579 c-7 -23 -10 -44 -6 -47 3 -3 42 -6 86 -5 l81 1 -6 -42 c-3
-22 -10 -56 -15 -73 -5 -18 -7 -33 -4 -33 3 0 0 -7 -7 -15 -7 -8 -10 -15 -7
-15 3 0 0 -20 -7 -45 -8 -25 -12 -45 -10 -45 2 0 -1 -12 -7 -27 -6 -16 -12
-41 -15 -57 -2 -15 -6 -36 -9 -46 -11 -34 -17 -65 -19 -90 -1 -24 2 -25 50
-26 l51 0 23 95 c12 53 23 103 25 111 2 8 8 35 15 60 7 25 14 52 15 60 9 40
27 119 36 152 l9 36 86 -2 c93 -2 95 -1 109 62 l7 32 -235 0 -234 0 -12 -41z"/>
<path d="M1245 6608 c-2 -7 -9 -33 -15 -58 -6 -25 -13 -54 -15 -65 -3 -11 -7
-31 -10 -45 -3 -14 -9 -40 -14 -58 -5 -18 -11 -36 -12 -40 -1 -4 -3 -11 -5
-17 -1 -5 -10 -46 -20 -90 -10 -44 -18 -82 -19 -85 -1 -3 -7 -31 -14 -62 -7
-32 -13 -61 -14 -65 -1 -5 87 -8 195 -9 l196 0 11 40 c6 23 6 43 1 46 -5 3
-67 5 -139 5 -102 0 -131 3 -131 13 0 22 32 146 41 157 5 7 51 11 114 10 58 0
110 2 115 5 5 3 11 18 14 33 2 14 7 31 11 37 7 11 0 12 -132 14 -50 0 -94 4
-98 7 -3 4 -1 27 6 50 17 59 16 57 18 77 1 17 12 19 138 18 111 0 137 3 139
15 1 7 5 29 8 47 l6 32 -185 0 c-140 0 -187 -3 -190 -12z"/>
<path d="M2350 6583 c-6 -21 -28 -114 -51 -208 -22 -93 -47 -198 -55 -233 -9
-35 -17 -68 -18 -75 -1 -7 -5 -17 -9 -23 -15 -25 23 -31 193 -29 204 2 191 1
184 19 -3 8 -1 17 5 21 6 3 11 16 11 29 0 22 -2 22 -122 21 -146 -1 -150 0
-138 29 4 13 31 121 60 242 28 120 53 225 55 232 3 8 -11 12 -50 12 -54 0 -54
0 -65 -37z"/>
<path d="M3437 6612 c-5 -8 -30 -111 -32 -127 0 -5 -6 -28 -12 -50 -7 -22 -14
-53 -17 -70 -3 -16 -10 -45 -15 -62 -5 -18 -7 -33 -4 -33 3 0 0 -7 -7 -15 -7
-8 -10 -15 -7 -15 3 0 1 -16 -5 -36 -5 -20 -11 -44 -13 -53 -3 -16 -22 -92
-31 -121 -4 -14 20 -16 196 -16 l199 -1 6 26 c16 74 29 67 -127 66 l-140 -1 7
35 c3 20 7 41 9 46 2 6 7 29 11 52 4 25 14 43 24 45 9 3 62 4 118 3 111 -2
113 0 117 65 l1 25 -107 0 c-58 0 -109 2 -112 5 -3 3 0 26 5 50 6 25 12 53 14
63 7 32 14 34 144 33 143 -1 134 -5 147 66 l5 27 -185 1 c-102 0 -187 -4 -189
-8z"/>
<path d="M6945 6601 c-2 -9 -5 -19 -5 -24 0 -4 -7 -21 -15 -37 -8 -16 -15 -32
-15 -35 -1 -3 -2 -10 -4 -17 -3 -7 -18 -56 -34 -108 -58 -184 -74 -235 -77
-250 -2 -8 -8 -35 -15 -60 -7 -25 -12 -47 -11 -50 0 -3 23 -5 51 -6 55 -1 51
-7 81 111 6 28 16 55 21 61 5 7 8 16 6 20 -2 9 18 92 30 124 7 18 6 16 21 69
7 23 14 41 17 39 5 -6 53 -260 56 -299 3 -38 14 -46 58 -45 34 1 38 6 145 168
61 92 113 170 117 173 6 6 5 -13 -6 -75 -3 -14 -5 -25 -6 -25 -1 0 -3 -9 -4
-20 -5 -33 -16 -99 -21 -125 -3 -14 -7 -34 -9 -45 -3 -11 -9 -42 -15 -68 -6
-27 -9 -52 -7 -56 3 -4 28 -8 56 -8 40 -1 50 3 51 16 0 9 2 23 4 31 10 40 27
134 55 315 11 69 16 106 25 198 l5 47 -49 0 c-33 0 -53 -5 -63 -17 -22 -25
-228 -331 -228 -338 0 -4 -7 -13 -15 -21 -13 -14 -15 -14 -16 0 -1 9 -2 19 -4
24 -10 36 -15 63 -20 97 -3 22 -8 47 -10 55 -3 8 -7 29 -9 45 -7 45 -16 87
-24 120 -8 28 -12 30 -60 31 -40 2 -53 -2 -57 -15z"/>
</g>
</svg>
